<svg xmlns="http://www.w3.org/2000/svg" width="129" height="30" fill="none"><path fill="#F5F3FF" d="M91.68 22.28h2.456V14.07c0-3.498 1.781-4.572 4.13-4.572h.647v-2.59c-2.348 0-3.94 1.047-4.777 2.727V7.185H91.68V22.28Z"/><path fill="#F5F3FF" fill-rule="evenodd" d="M25.187 14.677c0-4.71 3.05-7.74 7.017-7.74 2.752 0 4.642 1.432 5.505 3.002V7.185h2.483V22.28h-2.483v-2.81c-.89 1.626-2.807 3.058-5.532 3.058-3.94 0-6.99-3.168-6.99-7.85Zm12.522.028c0-3.499-2.32-5.592-5.02-5.592-2.698 0-4.992 2.01-4.992 5.564 0 3.554 2.294 5.647 4.992 5.647 2.7 0 5.02-2.066 5.02-5.62Z" clip-rule="evenodd"/><path fill="#F5F3FF" d="M54.166 18.176c0 2.479-2.132 4.352-5.398 4.352-3.454 0-5.883-1.928-6.045-4.683h2.537c.135 1.46 1.403 2.562 3.481 2.562 1.944 0 3.023-.992 3.023-2.231 0-1.466-1.663-1.92-3.538-2.433-2.425-.663-5.206-1.423-5.206-4.592 0-2.314 2.132-4.214 5.424-4.214 3.266 0 5.425 1.79 5.587 4.738h-2.456c-.108-1.515-1.241-2.617-3.212-2.617-1.808 0-2.887.881-2.887 2.093 0 1.61 1.734 2.101 3.654 2.644 2.35.665 4.977 1.409 5.036 4.38Z"/><path fill="#F5F3FF" fill-rule="evenodd" d="M64.812 6.937c-2.7 0-4.642 1.432-5.533 3.03V7.185h-2.456v22.257h2.456v-9.944c.918 1.542 2.834 3.03 5.533 3.03 3.967 0 7.017-3.168 7.017-7.85 0-4.711-3.05-7.741-7.017-7.741Zm-.513 2.176c2.726 0 5.02 2.01 5.02 5.564 0 3.554-2.294 5.647-5.02 5.647-2.672 0-5.02-2.066-5.02-5.62 0-3.498 2.348-5.591 5.02-5.591ZM73.334 14.677c0-4.71 3.05-7.74 7.017-7.74 2.753 0 4.642 1.432 5.506 3.002V7.185h2.483V22.28h-2.483v-2.81c-.891 1.626-2.807 3.058-5.533 3.058-3.94 0-6.99-3.168-6.99-7.85Zm12.523.028c0-3.499-2.321-5.592-5.02-5.592-2.699 0-4.993 2.01-4.993 5.564 0 3.554 2.294 5.647 4.993 5.647 2.699 0 5.02-2.066 5.02-5.62ZM100.021 14.677c0-4.71 3.049-7.74 7.017-7.74 2.752 0 4.642 1.432 5.505 3.002V7.185h2.483V22.28h-2.483v-2.81c-.89 1.626-2.807 3.058-5.532 3.058-3.941 0-6.99-3.168-6.99-7.85Zm12.522.028c0-3.499-2.321-5.592-5.02-5.592-2.698 0-4.992 2.01-4.992 5.564 0 3.554 2.294 5.647 4.992 5.647 2.699 0 5.02-2.066 5.02-5.62Z" clip-rule="evenodd"/><path fill="#F5F3FF" d="M123.602 22.528c3.266 0 5.398-1.873 5.398-4.352-.059-2.972-2.686-3.716-5.036-4.38-1.92-.544-3.654-1.035-3.654-2.645 0-1.212 1.079-2.093 2.888-2.093 1.97 0 3.103 1.102 3.211 2.617h2.456c-.162-2.948-2.321-4.738-5.586-4.738-3.293 0-5.425 1.9-5.425 4.214 0 3.17 2.781 3.93 5.206 4.592 1.875.513 3.538.967 3.538 2.433 0 1.24-1.079 2.23-3.023 2.23-2.078 0-3.346-1.101-3.481-2.561h-2.537c.162 2.755 2.591 4.683 6.045 4.683Z"/><path fill="#8B5CF6" d="M7.396 4.635h2.527c.281.004.559.064.817.178.258.115.492.28.687.486l5.179 5.286a2.353 2.353 0 0 1 .667 1.638v9.305a.744.744 0 0 1-.212.52.714.714 0 0 1-.51.216h-2.876a.714.714 0 0 1-.51-.215.744.744 0 0 1-.21-.52v-7.834a1.497 1.497 0 0 0-.427-1.045L9.38 9.438a1.051 1.051 0 0 0-.748-.315c-.28 0-.549.113-.748.315L4.737 12.65a1.467 1.467 0 0 0-.419 1.045v3.798c.002.096.04.187.107.255a.36.36 0 0 0 .25.109h4.132c.191 0 .374.077.51.215a.744.744 0 0 1 .21.52v2.936a.744.744 0 0 1-.21.52.714.714 0 0 1-.51.216H1.488c-.394 0-.773-.16-1.052-.445A1.535 1.535 0 0 1 0 20.745v-8.538c0-.304.059-.606.173-.887.115-.281.282-.536.494-.75l5.178-5.287a2.13 2.13 0 0 1 .71-.486c.267-.112.553-.167.84-.162Z"/></svg>