<svg width="16" height="16" viewBox="0 0 16 16" fill="none" xmlns="http://www.w3.org/2000/svg">
<g id="icon">
<path id="asparas-icon" d="M6.85099 0.00021655H9.1921C9.45264 0.0038878 9.70986 0.05908 9.94897 0.16261C10.1881 0.266139 10.4043 0.415956 10.5853 0.603437L15.3824 5.40051C15.5782 5.59539 15.7335 5.82704 15.8395 6.08214C15.9455 6.33724 16 6.61077 16 6.88701V15.3321C16 15.5093 15.9296 15.6791 15.8044 15.8044C15.6791 15.9296 15.5093 16 15.3321 16H12.6679C12.4907 16 12.3209 15.9296 12.1956 15.8044C12.0704 15.6791 12 15.5093 12 15.3321V8.22272C12 8.04648 11.965 7.87198 11.8973 7.70929C11.8295 7.5466 11.7301 7.39894 11.605 7.27481L8.68941 4.35923C8.50513 4.17636 8.25603 4.07374 7.99642 4.07374C7.7368 4.07374 7.48769 4.17636 7.30341 4.35923L4.38779 7.27481C4.26365 7.39929 4.16545 7.54718 4.09888 7.70989C4.03231 7.87261 3.99871 8.04692 4 8.22272V11.6697C4.00184 11.7568 4.03723 11.8397 4.09879 11.9013C4.16035 11.9628 4.2433 11.9982 4.33034 12.0001H8.15799C8.33512 12.0001 8.50499 12.0704 8.63024 12.1957C8.75549 12.3209 8.82586 12.4908 8.82586 12.6679V15.3321C8.82586 15.5093 8.75549 15.6791 8.63024 15.8044C8.50499 15.9296 8.33512 16 8.15799 16H1.37881C1.01313 16 0.662429 15.8547 0.403851 15.5962C0.145273 15.3376 3.15596e-08 14.9869 3.15596e-08 14.6212V6.87266C-4.78952e-05 6.59642 0.0544911 6.32288 0.160478 6.06777C0.266464 5.81267 0.42181 5.58102 0.617595 5.38614L5.41473 0.589083C5.60194 0.399004 5.82572 0.248827 6.07257 0.147619C6.31942 0.0464115 6.58423 -0.00373425 6.85099 0.00021655Z" fill="#F5F3FF"/>
</g>
</svg>
